<?xml version="1.0" encoding="UTF-8" standalone="no"?>
<!DOCTYPE svg PUBLIC "-//W3C//DTD SVG 1.1//EN" "http://www.w3.org/Graphics/SVG/1.1/DTD/svg11.dtd">
<svg width="100%" height="100%" viewBox="0 0 128 64" version="1.1" xmlns="http://www.w3.org/2000/svg" xmlns:xlink="http://www.w3.org/1999/xlink" xml:space="preserve" xmlns:serif="http://www.serif.com/" style="fill-rule:evenodd;clip-rule:evenodd;stroke-linecap:round;stroke-linejoin:round;stroke-miterlimit:1.5;">
    <g transform="matrix(0.232567,0,0,0.232567,28.7177,11.6165)">
        <g transform="matrix(1.05254,0,0,1.25807,-80.687,-51.0745)">
            <path d="M329.351,61.197C329.351,46.293 314.888,34.193 297.073,34.193L54.252,34.193C36.437,34.193 21.974,46.293 21.974,61.197L21.974,115.206C21.974,130.11 36.437,142.21 54.252,142.21L121.872,142.21L83.45,188.504L167.978,142.21L297.073,142.21C314.888,142.21 329.351,130.11 329.351,115.206L329.351,61.197Z" style="fill:white;stroke:black;stroke-width:12.98px;"/>
        </g>
        <g transform="matrix(1.11963,0,0,1.06618,-357.055,3.73876)">
            <g transform="matrix(80.6585,0,0,80.6585,303.138,76.3057)">
                <path d="M0.123,-0.492L0,-0.492L0,-0.667L0.466,-0.667L0.466,-0.492L0.343,-0.492L0.343,-0L0.123,-0L0.123,-0.492Z" style="fill-rule:nonzero;"/>
            </g>
            <g transform="matrix(80.6585,0,0,80.6585,340.725,76.3057)">
                <rect x="0.035" y="-0.667" width="0.226" height="0.667" style="fill-rule:nonzero;"/>
            </g>
            <g transform="matrix(80.6585,0,0,80.6585,364.6,76.3057)">
                <path d="M0.035,-0.667L0.257,-0.667L0.257,-0.175L0.441,-0.175L0.441,-0L0.035,-0L0.035,-0.667Z" style="fill-rule:nonzero;"/>
            </g>
            <g transform="matrix(80.6585,0,0,80.6585,400.17,76.3057)">
                <path d="M0.035,-0.667L0.296,-0.667C0.329,-0.667 0.36,-0.663 0.388,-0.656C0.415,-0.648 0.439,-0.636 0.459,-0.622C0.478,-0.607 0.494,-0.588 0.505,-0.566C0.516,-0.543 0.521,-0.517 0.521,-0.487C0.521,-0.466 0.518,-0.448 0.513,-0.433C0.508,-0.418 0.502,-0.405 0.496,-0.395C0.489,-0.383 0.48,-0.373 0.471,-0.365C0.486,-0.356 0.499,-0.344 0.511,-0.329C0.521,-0.316 0.53,-0.3 0.539,-0.281C0.547,-0.262 0.551,-0.238 0.551,-0.21C0.551,-0.178 0.545,-0.149 0.534,-0.123C0.523,-0.097 0.507,-0.075 0.486,-0.057C0.464,-0.038 0.439,-0.024 0.409,-0.015C0.378,-0.005 0.344,-0 0.307,-0L0.035,-0L0.035,-0.667ZM0.265,-0.157C0.316,-0.157 0.341,-0.176 0.341,-0.215C0.341,-0.254 0.316,-0.273 0.265,-0.273L0.241,-0.273L0.241,-0.157L0.265,-0.157ZM0.315,-0.464C0.315,-0.495 0.298,-0.51 0.265,-0.51L0.241,-0.51L0.241,-0.418L0.265,-0.418C0.298,-0.418 0.315,-0.433 0.315,-0.464Z" style="fill-rule:nonzero;"/>
            </g>
            <g transform="matrix(80.6585,0,0,80.6585,445.017,76.3057)">
                <path d="M0.02,-0.333C0.02,-0.381 0.029,-0.426 0.048,-0.469C0.066,-0.512 0.091,-0.549 0.123,-0.581C0.154,-0.612 0.191,-0.637 0.234,-0.656C0.277,-0.674 0.322,-0.683 0.37,-0.683C0.418,-0.683 0.463,-0.674 0.506,-0.656C0.549,-0.637 0.586,-0.612 0.618,-0.581C0.649,-0.549 0.674,-0.512 0.693,-0.469C0.711,-0.426 0.72,-0.381 0.72,-0.333C0.72,-0.285 0.711,-0.24 0.693,-0.197C0.674,-0.154 0.649,-0.117 0.618,-0.086C0.586,-0.054 0.549,-0.029 0.506,-0.011C0.463,0.008 0.418,0.017 0.37,0.017C0.322,0.017 0.277,0.008 0.234,-0.011C0.191,-0.029 0.154,-0.054 0.123,-0.086C0.091,-0.117 0.066,-0.154 0.048,-0.197C0.029,-0.24 0.02,-0.285 0.02,-0.333ZM0.23,-0.333C0.23,-0.314 0.234,-0.296 0.241,-0.279C0.248,-0.262 0.258,-0.247 0.271,-0.234C0.284,-0.221 0.299,-0.211 0.316,-0.204C0.333,-0.197 0.351,-0.193 0.37,-0.193C0.389,-0.193 0.408,-0.197 0.425,-0.204C0.442,-0.211 0.456,-0.221 0.469,-0.234C0.482,-0.247 0.492,-0.262 0.499,-0.279C0.506,-0.296 0.51,-0.314 0.51,-0.333C0.51,-0.352 0.506,-0.371 0.499,-0.388C0.492,-0.405 0.482,-0.419 0.469,-0.432C0.456,-0.445 0.442,-0.455 0.425,-0.462C0.408,-0.469 0.389,-0.473 0.37,-0.473C0.351,-0.473 0.333,-0.469 0.316,-0.462C0.299,-0.455 0.284,-0.445 0.271,-0.432C0.258,-0.419 0.248,-0.405 0.241,-0.388C0.234,-0.371 0.23,-0.352 0.23,-0.333Z" style="fill-rule:nonzero;"/>
            </g>
            <g transform="matrix(80.6585,0,0,80.6585,502.284,76.3057)">
                <path d="M0.123,-0.492L0,-0.492L0,-0.667L0.466,-0.667L0.466,-0.492L0.343,-0.492L0.343,-0L0.123,-0L0.123,-0.492Z" style="fill-rule:nonzero;"/>
            </g>
            <g transform="matrix(80.6585,0,0,80.6585,572.134,76.3057)">
                <rect x="0.035" y="-0.667" width="0.226" height="0.667" style="fill-rule:nonzero;"/>
            </g>
            <g transform="matrix(80.6585,0,0,80.6585,596.009,76.3057)">
                <path d="M0.02,-0.333C0.02,-0.381 0.029,-0.426 0.048,-0.469C0.066,-0.512 0.091,-0.549 0.123,-0.581C0.154,-0.612 0.191,-0.637 0.234,-0.656C0.277,-0.674 0.322,-0.683 0.37,-0.683C0.418,-0.683 0.463,-0.674 0.506,-0.656C0.549,-0.637 0.586,-0.612 0.618,-0.581C0.649,-0.549 0.674,-0.512 0.693,-0.469C0.711,-0.426 0.72,-0.381 0.72,-0.333C0.72,-0.285 0.711,-0.24 0.693,-0.197C0.674,-0.154 0.649,-0.117 0.618,-0.086C0.586,-0.054 0.549,-0.029 0.506,-0.011C0.463,0.008 0.418,0.017 0.37,0.017C0.322,0.017 0.277,0.008 0.234,-0.011C0.191,-0.029 0.154,-0.054 0.123,-0.086C0.091,-0.117 0.066,-0.154 0.048,-0.197C0.029,-0.24 0.02,-0.285 0.02,-0.333ZM0.23,-0.333C0.23,-0.314 0.234,-0.296 0.241,-0.279C0.248,-0.262 0.258,-0.247 0.271,-0.234C0.284,-0.221 0.299,-0.211 0.316,-0.204C0.333,-0.197 0.351,-0.193 0.37,-0.193C0.389,-0.193 0.408,-0.197 0.425,-0.204C0.442,-0.211 0.456,-0.221 0.469,-0.234C0.482,-0.247 0.492,-0.262 0.499,-0.279C0.506,-0.296 0.51,-0.314 0.51,-0.333C0.51,-0.352 0.506,-0.371 0.499,-0.388C0.492,-0.405 0.482,-0.419 0.469,-0.432C0.456,-0.445 0.442,-0.455 0.425,-0.462C0.408,-0.469 0.389,-0.473 0.37,-0.473C0.351,-0.473 0.333,-0.469 0.316,-0.462C0.299,-0.455 0.284,-0.445 0.271,-0.432C0.258,-0.419 0.248,-0.405 0.241,-0.388C0.234,-0.371 0.23,-0.352 0.23,-0.333Z" style="fill-rule:nonzero;"/>
            </g>
        </g>
    </g>
</svg>
