<?xml version="1.0" encoding="UTF-8" standalone="no"?>
<!DOCTYPE svg PUBLIC "-//W3C//DTD SVG 1.1//EN" "http://www.w3.org/Graphics/SVG/1.1/DTD/svg11.dtd">
<svg width="100%" height="100%" viewBox="0 0 640 640" version="1.1" xmlns="http://www.w3.org/2000/svg" xmlns:xlink="http://www.w3.org/1999/xlink" xml:space="preserve" xmlns:serif="http://www.serif.com/" style="fill-rule:evenodd;clip-rule:evenodd;stroke-linejoin:round;stroke-miterlimit:2;">
    <rect x="-85.219" y="-35.266" width="810.046" height="729.536" style="fill:url(#_Linear1);"/>
    <g transform="matrix(1.11458,0,0,1.11458,-20.7529,-14.711)">
        <g transform="matrix(1,0,0,1,-2053.8,-176.301)">
            <path d="M2570.99,723.83C2570.99,806.161 2513.23,902.87 2421.46,902.87C2364.59,902.87 2317.79,868.055 2290.44,821.508C2273.62,792.931 2264.13,759.93 2264.13,727.849C2264.13,643.501 2356.19,647.521 2414.53,647.521C2478.51,647.521 2554.47,642.62 2568.63,702.207C2570.18,708.633 2570.99,715.816 2570.99,723.83Z" style="fill:rgb(95,187,232);fill-rule:nonzero;"/>
        </g>
        <g transform="matrix(1,0,0,1,-2053.8,-176.301)">
            <path d="M2570.99,723.83C2570.99,806.161 2513.23,902.87 2421.46,902.87C2364.59,902.87 2317.79,868.055 2290.44,821.508C2347.43,848.335 2509.78,903.903 2568.63,702.207C2570.18,708.633 2570.99,715.816 2570.99,723.83Z" style="fill:rgb(95,174,222);fill-rule:nonzero;"/>
        </g>
        <g transform="matrix(1,0,0,1,-2053.8,-176.301)">
            <path d="M2295.91,695.146C2283.99,714.584 2292.42,742.245 2312.89,753.104C2334.52,764.582 2363.96,754.291 2372,731.476C2379.64,709.802 2364.92,685.51 2343.82,678.696C2326.9,673.231 2305.82,678.985 2295.91,695.146Z" style="fill:rgb(177,236,237);fill-rule:nonzero;"/>
        </g>
        <g transform="matrix(1,0,0,1,-2053.8,-176.301)">
            <path d="M2226.33,484.951C2220.55,479.921 2215.92,473.965 2212.55,467.467C2204.78,452.559 2203.57,434.821 2209.99,419.028C2216.51,403.002 2230.07,390.97 2246.48,385.852C2251.11,384.393 2255.99,383.486 2261,383.214C2276.92,447.548 2226.33,484.951 2226.33,484.951Z" style="fill:rgb(95,187,232);fill-rule:nonzero;"/>
        </g>
        <g transform="matrix(1,0,0,1,-2053.8,-176.301)">
            <path d="M2226.33,484.951C2220.55,479.921 2215.92,473.965 2212.55,467.467C2218.39,455.402 2224.21,442.588 2229.89,429.036C2236.14,414.102 2241.64,399.667 2246.48,385.852C2251.11,384.393 2255.99,383.486 2261,383.214C2249.44,417.126 2237.89,451.038 2226.33,484.951Z" style="fill:rgb(95,174,222);fill-rule:nonzero;"/>
        </g>
        <g transform="matrix(1,0,0,1,-2053.8,-176.301)">
            <path d="M2552.64,528.243C2552.42,610.03 2367.71,649.878 2277.02,606.753C2251.82,594.773 2233.88,576.378 2229.17,550.711C2207.49,432.654 2278.7,318.236 2369.21,311.95C2402.01,309.671 2441.41,319.552 2475.25,345.154C2518.61,377.925 2552.89,436.475 2552.64,528.243Z" style="fill:rgb(95,187,232);fill-rule:nonzero;"/>
        </g>
        <g transform="matrix(1,0,0,1,-2053.8,-176.301)">
            <path d="M2499.22,459.73C2500.36,476.059 2483.13,487.36 2460.44,494.936C2436.54,502.924 2406.59,506.786 2385.63,508.039C2355.63,509.833 2297.45,508.645 2275.27,491.1C2270.07,486.99 2266.86,481.971 2266.44,475.9C2265.21,458.213 2271.46,441.688 2282.57,429.257C2293.68,416.84 2309.65,408.531 2327.84,407.268L2428.92,400.247C2450.06,398.778 2469.55,407.163 2482.64,421.385C2492.08,431.643 2498.2,444.922 2499.22,459.73Z" style="fill:rgb(41,79,129);fill-rule:nonzero;"/>
        </g>
        <g transform="matrix(1,0,0,1,-2053.8,-176.301)">
            <path d="M2499.22,459.73C2500.36,476.059 2483.13,487.36 2460.44,494.936C2436.54,502.924 2406.59,506.786 2385.63,508.039C2355.63,509.833 2297.45,508.645 2275.27,491.1C2334.53,485.19 2434.79,468.437 2482.64,421.385C2492.08,431.643 2498.2,444.922 2499.22,459.73Z" style="fill:rgb(51,72,122);fill-rule:nonzero;"/>
        </g>
        <g transform="matrix(1,0,0,1,-2053.8,-176.301)">
            <path d="M2552.64,528.243C2552.42,610.03 2367.71,649.878 2277.02,606.753C2330.95,611.898 2491.04,620.306 2514.29,541.845C2534.28,474.372 2497.82,388.729 2475.25,345.154C2518.61,377.925 2552.89,436.475 2552.64,528.243Z" style="fill:rgb(95,174,222);fill-rule:nonzero;"/>
        </g>
        <g transform="matrix(1,0,0,1,-2053.8,-176.301)">
            <path d="M2270.48,399.27C2275.75,405.295 2304.47,389.924 2323.36,373.891C2341.47,358.523 2359.41,335.021 2354.68,329.051C2350.47,323.75 2329.13,333.205 2315.87,341.478C2286.19,359.993 2264.75,392.707 2270.48,399.27Z" style="fill:rgb(177,236,237);fill-rule:nonzero;"/>
        </g>
        <g transform="matrix(1,0,0,1,-2053.8,-176.301)">
            <path d="M2236.08,528.904C2238.29,550.594 2253.01,570.309 2258.29,568.528C2263.83,566.659 2259.73,540.854 2256.13,526.762C2255.1,522.717 2248.8,497.973 2242.94,498.487C2238.34,498.892 2234.64,514.855 2236.08,528.904Z" style="fill:rgb(177,236,237);fill-rule:nonzero;"/>
        </g>
        <g transform="matrix(1,0,0,1,-2053.8,-176.301)">
            <path d="M2477.6,447.397C2478.73,463.645 2466.47,477.732 2450.23,478.861C2437.67,479.733 2426.4,472.622 2421.41,461.844C2419.94,458.672 2419.01,455.183 2418.75,451.485C2417.62,435.237 2429.88,421.15 2446.14,420.021C2458.1,419.19 2468.88,425.614 2474.18,435.541C2476.1,439.102 2477.3,443.11 2477.6,447.397Z" style="fill:rgb(57,55,96);fill-rule:nonzero;"/>
        </g>
        <g transform="matrix(1,0,0,1,-2053.8,-176.301)">
            <path d="M2448.21,414.909C2447.41,414.909 2446.59,414.938 2445.79,414.993C2436.58,415.632 2428.18,419.817 2422.12,426.775C2416.07,433.733 2413.08,442.632 2413.72,451.834C2414.02,456.057 2415.06,460.137 2416.84,463.962C2422.47,476.118 2434.76,483.973 2448.15,483.973C2448.95,483.973 2449.77,483.945 2450.58,483.889C2459.78,483.25 2468.18,479.065 2474.23,472.107C2480.29,465.149 2483.27,456.25 2482.63,447.048C2482.29,442.136 2480.94,437.46 2478.62,433.152C2472.62,421.905 2460.96,414.909 2448.21,414.909ZM2448.18,419.942C2459.3,419.942 2469.19,426.19 2474.18,435.541C2476.1,439.102 2477.3,443.11 2477.6,447.397C2478.73,463.645 2466.47,477.732 2450.23,478.861C2449.53,478.909 2448.84,478.933 2448.15,478.933C2436.43,478.933 2426.13,472.024 2421.41,461.844C2419.94,458.672 2419.01,455.183 2418.75,451.485C2417.62,435.237 2429.88,421.15 2446.14,420.021C2446.83,419.973 2447.49,419.942 2448.18,419.942Z" style="fill:rgb(70,174,210);fill-rule:nonzero;"/>
        </g>
        <g transform="matrix(1,0,0,1,-2053.8,-176.301)">
            <path d="M2474.15,435.484C2465.01,462.8 2437.72,463.9 2421.48,461.926C2420,458.76 2419.06,455.274 2418.79,451.577C2417.6,435.333 2429.81,421.205 2446.07,420.021C2458.03,419.151 2468.82,425.575 2474.15,435.484Z" style="fill:rgb(47,69,114);fill-rule:nonzero;"/>
        </g>
        <g transform="matrix(1,0,0,1,-2053.8,-176.301)">
            <path d="M2446.22,439.764C2446.59,445.158 2442.52,449.834 2437.13,450.209C2431.73,450.583 2427.06,446.515 2426.68,441.121C2426.31,435.727 2430.38,431.05 2435.77,430.675C2441.17,430.301 2445.84,434.37 2446.22,439.764Z" style="fill:rgb(177,236,237);fill-rule:nonzero;"/>
        </g>
        <g transform="matrix(1,0,0,1,-2053.8,-176.301)">
            <path d="M2471.65,453.551C2473.32,454.515 2471.86,464.913 2464.85,469.34C2458.62,473.273 2449.87,471.318 2449.54,469.446C2449.3,468.07 2453.71,467.382 2460.83,462.366C2468.32,457.086 2470.48,452.88 2471.65,453.551Z" style="fill:rgb(177,236,237);fill-rule:nonzero;"/>
        </g>
        <g transform="matrix(1,0,0,1,-2053.8,-176.301)">
            <path d="M2347.08,456.461C2348.21,472.709 2335.96,486.796 2319.71,487.924C2307.15,488.797 2295.88,481.685 2290.89,470.907C2289.42,467.736 2288.49,464.247 2288.23,460.549C2287.11,444.301 2299.36,430.214 2315.62,429.085C2327.58,428.254 2338.37,434.677 2343.67,444.604C2345.58,448.166 2346.79,452.174 2347.08,456.461Z" style="fill:rgb(57,55,96);fill-rule:nonzero;"/>
        </g>
        <g transform="matrix(1,0,0,1,-2053.8,-176.301)">
            <path d="M2317.7,423.973C2316.89,423.973 2316.08,424.001 2315.27,424.057C2306.07,424.696 2297.66,428.88 2291.61,435.838C2285.55,442.796 2282.57,451.696 2283.21,460.898C2283.5,465.121 2284.55,469.201 2286.32,473.026C2291.95,485.182 2304.24,493.037 2317.63,493.037C2318.43,493.037 2319.25,493.008 2320.06,492.953C2339.05,491.633 2353.43,475.106 2352.11,456.112C2351.77,451.199 2350.42,446.524 2348.1,442.216C2342.1,430.969 2330.45,423.973 2317.7,423.973ZM2317.74,429.006C2328.86,429.006 2338.67,435.254 2343.67,444.604C2345.58,448.166 2346.79,452.174 2347.08,456.461C2348.21,472.709 2335.96,486.796 2319.71,487.924C2319.01,487.973 2318.32,487.997 2317.63,487.997C2305.92,487.997 2295.61,481.088 2290.89,470.907C2289.42,467.736 2288.49,464.247 2288.23,460.549C2287.11,444.301 2299.36,430.214 2315.62,429.085C2316.32,429.037 2317.05,429.006 2317.74,429.006Z" style="fill:rgb(70,174,210);fill-rule:nonzero;"/>
        </g>
        <g transform="matrix(1,0,0,1,-2053.8,-176.301)">
            <path d="M2343.67,444.604C2334.53,471.919 2307.2,472.964 2290.96,470.99C2289.48,467.823 2288.54,464.337 2288.27,460.641C2287.09,444.396 2299.3,430.269 2315.55,429.085C2327.51,428.215 2338.33,434.695 2343.67,444.604Z" style="fill:rgb(47,69,114);fill-rule:nonzero;"/>
        </g>
        <g transform="matrix(1,0,0,1,-2053.8,-176.301)">
            <path d="M2315.7,448.828C2316.07,454.221 2312,458.898 2306.61,459.272C2301.22,459.647 2296.54,455.578 2296.17,450.184C2295.79,444.79 2299.86,440.114 2305.25,439.739C2310.65,439.364 2315.32,443.434 2315.7,448.828Z" style="fill:rgb(177,236,237);fill-rule:nonzero;"/>
        </g>
        <g transform="matrix(1,0,0,1,-2053.8,-176.301)">
            <path d="M2341.13,462.615C2342.8,463.578 2341.34,473.977 2334.33,478.403C2328.1,482.337 2319.35,480.382 2319.02,478.509C2318.78,477.134 2323.19,476.446 2330.31,471.43C2337.81,466.15 2339.97,461.944 2341.13,462.615Z" style="fill:rgb(177,236,237);fill-rule:nonzero;"/>
        </g>
        <g transform="matrix(1,0,0,1,-2053.8,-176.301)">
            <path d="M2387.61,409.847C2388.03,411.781 2375.13,417.304 2361.52,419.518C2339.45,423.109 2318.6,417.489 2318.73,415.005C2318.79,413.865 2332.83,412.754 2360.9,410.579C2383.46,408.832 2387.39,408.826 2387.61,409.847Z" style="fill:rgb(41,106,189);fill-rule:nonzero;"/>
        </g>
        <g transform="matrix(1,0,0,1,-2053.8,-176.301)">
            <path d="M2211.24,429.685C2210.62,429.257 2195.87,418.967 2185.77,397.571C2176.52,377.995 2169.59,345.004 2189.09,299.009L2197.21,302.451C2182.66,336.769 2181.43,367.363 2193.54,393.384C2202.58,412.792 2216.11,422.324 2216.24,422.418L2211.24,429.685Z" style="fill:rgb(95,187,232);fill-rule:nonzero;"/>
        </g>
        <g transform="matrix(1,0,0,1,-2053.8,-176.301)">
            <path d="M2218,293.32C2216.76,304.593 2206.62,312.727 2195.35,311.488C2184.07,310.25 2175.94,300.107 2177.18,288.834C2178.42,277.562 2188.56,269.427 2199.83,270.666C2211.11,271.905 2219.24,282.047 2218,293.32Z" style="fill:rgb(41,79,129);fill-rule:nonzero;"/>
        </g>
        <g transform="matrix(1,0,0,1,-2053.8,-176.301)">
            <path d="M2184.31,286.061C2184.74,292.131 2190.01,296.706 2196.08,296.277C2202.15,295.85 2206.73,290.582 2206.3,284.511C2205.87,278.44 2200.6,273.867 2194.53,274.294C2188.46,274.723 2183.89,279.991 2184.31,286.061Z" style="fill:rgb(41,106,189);fill-rule:nonzero;"/>
        </g>
        <g transform="matrix(1,0,0,1,-2053.8,-176.301)">
            <path d="M2390.96,580.333C2376.87,581.714 2365.24,576.004 2356.44,568.029C2340.64,553.738 2333.95,532.148 2338.47,531.211C2345.51,529.775 2363.61,539.637 2382.76,537.761C2404.77,535.604 2419.04,526.611 2430.29,524.875C2430.8,524.788 2431.28,524.728 2431.77,524.68C2443.26,523.554 2434.21,576.097 2390.96,580.333Z" style="fill:rgb(41,79,129);fill-rule:nonzero;"/>
        </g>
        <g transform="matrix(1,0,0,1,-2053.8,-176.301)">
            <path d="M2390.96,580.333C2376.87,581.714 2365.24,576.004 2356.44,568.029C2375.24,562.73 2411.94,549.703 2430.29,524.875C2430.8,524.788 2431.28,524.728 2431.77,524.68C2443.26,523.554 2434.21,576.097 2390.96,580.333Z" style="fill:rgb(51,72,122);fill-rule:nonzero;"/>
        </g>
    </g>
    <defs>
        <linearGradient id="_Linear1" x1="0" y1="0" x2="1" y2="0" gradientUnits="userSpaceOnUse" gradientTransform="matrix(291.494,1001.32,-901.799,262.522,224.413,-243.433)"><stop offset="0" style="stop-color:rgb(252,174,187);stop-opacity:0.52"/><stop offset="1" style="stop-color:rgb(175,234,220);stop-opacity:0.52"/></linearGradient>
    </defs>
</svg>
